<svg xmlns="http://www.w3.org/2000/svg" width="1024" height="1024" viewBox="0 0 1024 1024">
  <defs>
    <linearGradient id="bg" x1="0" y1="0" x2="0" y2="1">
      <stop offset="0" stop-color="#8A8A8A"/>
      <stop offset="1" stop-color="#555555"/>
    </linearGradient>
  </defs>
  <rect width="1024" height="1024" rx="224" fill="url(#bg)"/>
  <g transform="translate(512 480)" stroke="#FFFFFF" stroke-width="32" stroke-linecap="round" fill="none">
    <line x1="-160" y1="-192" x2="-160" y2="192"/>
    <line x1="0" y1="-192" x2="0" y2="192"/>
    <line x1="160" y1="-192" x2="160" y2="192"/>
    <line x1="-192" y1="-160" x2="192" y2="-160"/>
    <line x1="-192" y1="0" x2="192" y2="0"/>
    <line x1="-192" y1="160" x2="192" y2="160"/>
  </g>
  <g transform="translate(512 480)" fill="#FFFFFF">
    <circle cx="-160" cy="-160" r="26"/><circle cx="0" cy="-160" r="26"/><circle cx="160" cy="-160" r="26"/>
    <circle cx="-160" cy="0" r="26"/><circle cx="0" cy="0" r="26"/><circle cx="160" cy="0" r="26"/>
    <circle cx="-160" cy="160" r="26"/><circle cx="0" cy="160" r="26"/><circle cx="160" cy="160" r="26"/>
  </g>
  <text x="512" y="928" text-anchor="middle" font-family="-apple-system, Segoe UI, Roboto, sans-serif"
        font-weight="800" font-size="160" fill="#FFFFFF" letter-spacing="6">3D</text>
</svg>
