<svg xmlns="http://www.w3.org/2000/svg" width="1024" height="1024" viewBox="0 0 1024 1024">
  <defs>
    <linearGradient id="bg" x1="0" y1="0" x2="0" y2="1">
      <stop offset="0" stop-color="#009789"/>
      <stop offset="1" stop-color="#00665B"/>
    </linearGradient>
  </defs>
  <circle cx="512" cy="512" r="512" fill="url(#bg)"/>
  <g transform="translate(512 488)" stroke="#FFFFFF" stroke-width="30" stroke-linecap="round" fill="none">
    <line x1="-150" y1="-180" x2="-150" y2="180"/>
    <line x1="0" y1="-180" x2="0" y2="180"/>
    <line x1="150" y1="-180" x2="150" y2="180"/>
    <line x1="-180" y1="-150" x2="180" y2="-150"/>
    <line x1="-180" y1="0" x2="180" y2="0"/>
    <line x1="-180" y1="150" x2="180" y2="150"/>
  </g>
  <g transform="translate(512 488)" fill="#FFFFFF">
    <circle cx="-150" cy="-150" r="24"/><circle cx="0" cy="-150" r="24"/><circle cx="150" cy="-150" r="24"/>
    <circle cx="-150" cy="0" r="24"/><circle cx="0" cy="0" r="24"/><circle cx="150" cy="0" r="24"/>
    <circle cx="-150" cy="150" r="24"/><circle cx="0" cy="150" r="24"/><circle cx="150" cy="150" r="24"/>
  </g>
  <text x="512" y="888" text-anchor="middle" font-family="-apple-system, Segoe UI, Roboto, sans-serif"
        font-weight="800" font-size="150" fill="#FFFFFF" letter-spacing="6">3D</text>
</svg>
