<svg xmlns="http://www.w3.org/2000/svg" width="64" height="64" viewBox="0 0 64 64">
  <defs>
    <linearGradient id="bg" x1="0" y1="0" x2="0" y2="1">
      <stop offset="0" stop-color="#009789"/>
      <stop offset="1" stop-color="#00665B"/>
    </linearGradient>
  </defs>
  <rect width="64" height="64" rx="14" fill="url(#bg)"/>
  <g transform="translate(32 30)" stroke="#FFFFFF" stroke-width="2" stroke-linecap="round" fill="none">
    <line x1="-10" y1="-12" x2="-10" y2="12"/>
    <line x1="0"   y1="-12" x2="0"   y2="12"/>
    <line x1="10"  y1="-12" x2="10"  y2="12"/>
    <line x1="-12" y1="-10" x2="12" y2="-10"/>
    <line x1="-12" y1="0"   x2="12" y2="0"/>
    <line x1="-12" y1="10"  x2="12" y2="10"/>
  </g>
  <g transform="translate(32 30)" fill="#FFFFFF">
    <circle cx="-10" cy="-10" r="1.6"/>
    <circle cx="0"   cy="-10" r="1.6"/>
    <circle cx="10"  cy="-10" r="1.6"/>
    <circle cx="-10" cy="0"   r="1.6"/>
    <circle cx="0"   cy="0"   r="1.6"/>
    <circle cx="10"  cy="0"   r="1.6"/>
    <circle cx="-10" cy="10"  r="1.6"/>
    <circle cx="0"   cy="10"  r="1.6"/>
    <circle cx="10"  cy="10"  r="1.6"/>
  </g>
  <text x="32" y="58" text-anchor="middle"
        font-family="-apple-system, Segoe UI, Roboto, sans-serif"
        font-weight="800" font-size="10" fill="#FFFFFF" letter-spacing="0.4">3D</text>
</svg>
