<svg xmlns="http://www.w3.org/2000/svg" width="814.987" height="1023.9927" viewBox="0 0 814.987 1023.9927">
  <defs>
    <linearGradient id="bg" x1="0" y1="0" x2="0" y2="1">
      <stop offset="0" stop-color="#009789"/>
      <stop offset="1" stop-color="#00665B"/>
    </linearGradient>
  </defs>
  <rect x="77.5" y="182" width="660" height="660" rx="145" fill="url(#bg)"/>
  <g transform="translate(407.5 490)" stroke="#FFFFFF" stroke-width="21" stroke-linecap="round" fill="none">
    <line x1="-103" y1="-124" x2="-103" y2="124"/>
    <line x1="0" y1="-124" x2="0" y2="124"/>
    <line x1="103" y1="-124" x2="103" y2="124"/>
    <line x1="-124" y1="-103" x2="124" y2="-103"/>
    <line x1="-124" y1="0" x2="124" y2="0"/>
    <line x1="-124" y1="103" x2="124" y2="103"/>
  </g>
  <g transform="translate(407.5 490)" fill="#FFFFFF">
    <circle cx="-103" cy="-103" r="17"/><circle cx="0" cy="-103" r="17"/><circle cx="103" cy="-103" r="17"/>
    <circle cx="-103" cy="0" r="17"/><circle cx="0" cy="0" r="17"/><circle cx="103" cy="0" r="17"/>
    <circle cx="-103" cy="103" r="17"/><circle cx="0" cy="103" r="17"/><circle cx="103" cy="103" r="17"/>
  </g>
  <text x="407.5" y="780" text-anchor="middle" font-family="-apple-system, Segoe UI, Roboto, sans-serif"
        font-weight="800" font-size="103" fill="#FFFFFF" letter-spacing="4">3D</text>
</svg>
