<?xml version="1.0" encoding="UTF-8"?>
<svg xmlns="http://www.w3.org/2000/svg" width="480" height="480" viewBox="0 0 480 480">
  <defs>
    <linearGradient id="bg" x1="0" y1="0" x2="0" y2="1">
      <stop offset="0" stop-color="#FFFFFF"/>
      <stop offset="1" stop-color="#EAF2F0"/>
    </linearGradient>
    <linearGradient id="mark" x1="0" y1="0" x2="0" y2="1">
      <stop offset="0" stop-color="#00B59C"/>
      <stop offset="1" stop-color="#00665B"/>
    </linearGradient>
  </defs>
  <rect width="480" height="480" fill="url(#bg)"/>
  <circle cx="240" cy="150" r="124" fill="none" stroke="#00B59C" stroke-width="2" opacity="0.12"/>
  <circle cx="240" cy="150" r="156" fill="none" stroke="#00B59C" stroke-width="2" opacity="0.06"/>
  <rect x="160" y="70" width="160" height="160" rx="36" fill="url(#mark)"/>
  <g transform="translate(240 150)" stroke="#FFFFFF" stroke-width="6" stroke-linecap="round" fill="none">
    <line x1="-26" y1="-32" x2="-26" y2="32"/><line x1="0" y1="-32" x2="0" y2="32"/><line x1="26" y1="-32" x2="26" y2="32"/>
    <line x1="-32" y1="-26" x2="32" y2="-26"/><line x1="-32" y1="0" x2="32" y2="0"/><line x1="-32" y1="26" x2="32" y2="26"/>
  </g>
  <g transform="translate(240 150)" fill="#FFFFFF">
    <circle cx="-26" cy="-26" r="4.5"/><circle cx="0" cy="-26" r="4.5"/><circle cx="26" cy="-26" r="4.5"/>
    <circle cx="-26" cy="0" r="4.5"/><circle cx="0" cy="0" r="4.5"/><circle cx="26" cy="0" r="4.5"/>
    <circle cx="-26" cy="26" r="4.5"/><circle cx="0" cy="26" r="4.5"/><circle cx="26" cy="26" r="4.5"/>
  </g>
  <rect x="205" y="288" width="70" height="3" rx="1.5" fill="#00B59C" opacity="0.85"/>
</svg>
